<svg width="49" height="72" viewBox="0 0 49 72" fill="none" xmlns="http://www.w3.org/2000/svg">
<path fill-rule="evenodd" clip-rule="evenodd" d="M16.8187 58.8685C16.3607 58.8685 15.9797 59.0994 15.8258 59.4805L13.9168 64.4452L13.7629 64.9801L13.609 64.4452L12.081 59.6344C12.081 59.6344 12.081 59.6344 12.081 59.5574C11.9271 59.1764 11.5461 58.8685 11.0881 58.8685H8.64423C8.10927 58.9455 7.72826 59.3265 7.72826 59.9384C7.72826 60.0924 7.80523 60.2425 7.80523 60.3964L8.10927 61.4663L6.96238 64.4452L6.73147 64.9801L6.57752 64.4452L5.12659 59.6344C5.12659 59.6344 5.12659 59.6344 5.12659 59.5574H5.04962C4.97265 59.1764 4.59163 58.8685 4.13365 58.8685H1.70132C1.16636 58.9455 0.708374 59.3265 0.708374 59.9384C0.708374 60.0924 0.785346 60.2425 0.862319 60.3964L4.44923 71.238C4.60318 71.696 4.98419 72 5.44218 72C5.90016 72 6.28118 71.696 6.43512 71.3111L8.95597 64.8955L9.18689 64.2835L9.34083 64.8955L11.4807 71.2341C11.5576 71.6921 12.0156 71.9962 12.4736 71.9962C12.9316 71.9962 13.3126 71.6921 13.4666 71.3073L17.7424 60.3118C17.8193 60.1578 17.8193 60.0077 17.8193 59.8538C17.8116 59.3265 17.3537 58.8685 16.8187 58.8685Z" fill="#222223"/>
<path fill-rule="evenodd" clip-rule="evenodd" d="M34.9149 58.8685C34.4569 58.8685 34.0759 59.0994 33.922 59.4805L32.013 64.4452L31.8591 64.9801L31.7051 64.4452L30.1772 59.6344C30.1772 59.6344 30.1772 59.6344 30.1772 59.5574C30.0233 59.1764 29.6423 58.8685 29.1843 58.8685H26.7481C26.2132 58.9455 25.8322 59.3265 25.8322 59.9384C25.8322 60.0924 25.8322 60.2425 25.9091 60.3964L26.2132 61.4663L25.0663 64.4452L24.8354 64.9801L24.6814 64.4452L23.2305 59.6344C23.2305 59.6344 23.2305 59.6344 23.1535 59.5574C23.0765 59.1764 22.6955 58.8685 22.2375 58.8685H19.7937C19.2587 58.9455 18.8007 59.3265 18.8007 59.9384C18.8007 60.0924 18.8777 60.2425 18.9547 60.3964L22.5416 71.238C22.6955 71.696 23.0765 72 23.5345 72C23.9925 72 24.3735 71.696 24.5275 71.3111L27.0483 64.8955L27.2792 64.2835L27.4332 64.8955L29.573 71.2341C29.65 71.6921 30.108 71.9962 30.566 71.9962C31.0239 71.9962 31.405 71.6921 31.5589 71.3073L35.8347 60.3118C35.9117 60.1578 35.9117 60.0077 35.9117 59.8538C35.9078 59.3265 35.4499 58.8685 34.9149 58.8685Z" fill="#222223"/>
<path fill-rule="evenodd" clip-rule="evenodd" d="M46.6763 58.8685H38.1978C37.6628 58.8685 37.2818 59.2495 37.2818 59.7845C37.2818 59.7845 37.2818 60.6235 37.2818 61.9243C37.2818 64.9801 37.2818 71.0109 37.2818 71.0109C37.3588 71.5459 37.7398 71.9269 38.2747 71.9269C39.8026 71.9269 40.6416 71.9269 40.6416 71.9269C41.1766 71.9269 41.5576 71.5459 41.5576 71.0109C41.5576 71.0879 41.5576 65.7422 41.5576 65.7422H45.0714C45.5294 65.7422 45.9874 65.2842 45.9874 64.8262C45.9874 64.2912 45.5294 63.8332 45.0714 63.8332C44.9944 63.8332 41.5576 63.8332 41.5576 63.8332V60.8544H46.6724C47.2074 60.8544 47.6654 60.3964 47.6654 59.8615C47.6692 59.3265 47.2112 58.8685 46.6763 58.8685Z" fill="#222223"/>
<path fill-rule="evenodd" clip-rule="evenodd" d="M33.5409 22.984C35.0688 24.662 35.2189 29.8576 39.1137 27.7947C41.4037 26.5747 41.4037 21.3791 38.2747 19.474C35.7539 18.0231 34.3799 20.009 33.464 22.4528C33.3908 22.6761 33.3908 22.83 33.5409 22.984Z" fill="#222223"/>
<path fill-rule="evenodd" clip-rule="evenodd" d="M27.5101 22.1411C25.8321 23.4381 24.7622 27.179 21.7834 25.882C19.3395 24.662 19.1124 19.9281 23.3113 17.7113C26.2131 16.3374 27.6641 19.0083 27.6641 21.8332C27.6641 21.914 27.5871 22.068 27.5101 22.1411Z" fill="#222223"/>
<path fill-rule="evenodd" clip-rule="evenodd" d="M31.4819 31.5356C33.0868 31.3817 32.7019 29.8576 31.4819 29.5497C30.412 29.1687 28.811 28.9378 27.5871 29.0148C25.5243 29.0148 25.6012 30.6196 26.6712 30.9237C27.5102 31.1546 28.0451 31.2277 28.734 32.1437C29.3421 33.3675 29.0381 31.7627 31.4819 31.5356Z" fill="#222223"/>
<path fill-rule="evenodd" clip-rule="evenodd" d="M39.0406 4.96474C41.0265 1.60489 44.5364 2.21682 46.2952 3.89482C48.2042 5.72677 48.5852 7.8666 47.8232 9.31753C46.8302 11.3034 44.2362 13.6703 42.5544 11.3804C41.7924 10.3105 40.2645 9.09046 39.3485 8.78257C38.0477 8.17064 37.8167 7.02375 39.0406 4.96474Z" fill="#222223"/>
<path fill-rule="evenodd" clip-rule="evenodd" d="M47.0573 19.7011C46.9033 19.0892 46.5993 19.1661 46.5993 19.6241C46.7532 25.7319 43.0855 32.2976 35.2998 32.3746C33.3139 32.3746 33.9258 35.5035 30.2619 33.9025C27.6641 32.1475 26.14 35.6575 24.3081 31.9166C23.8501 30.8467 23.2382 30.3887 22.4761 30.1616C14.7597 28.2527 12.3158 17.6382 19.1125 9.08659C20.4094 9.92559 20.9444 10.0795 22.3953 8.70558C23.0842 8.01668 24.3812 7.25465 25.0663 7.02758C26.6711 6.41565 27.5871 5.7306 26.1362 2.59782C25.4665 1.1238 24.5583 0.338679 23.5884 0H20.9944C20.2016 0.234766 19.4819 0.638871 18.9585 1.06992C16.9726 2.67479 15.6756 5.19179 18.1195 8.17062C11.2459 12.8275 10.0259 18.5542 10.176 23.592C10.3299 28.8608 9.02907 28.4028 10.7109 33.7486C10.8649 34.2065 10.48 34.2065 10.2529 34.0526C3.07525 29.4727 -0.819553 15.4214 10.4069 7.70879C10.6378 7.47787 10.5608 7.17383 9.64485 7.70879C-0.0536779 12.8275 -0.969649 22.753 0.631377 29.4727C1.3934 32.6786 0.250363 33.2906 1.47038 37.5664C4.37224 46.4221 6.81611 47.1879 10.3261 47.415C16.6647 47.415 12.3119 43.9012 12.616 39.5523C12.616 39.2482 12.92 39.1713 13.074 39.7062C16.5878 47.4958 19.0278 54.5965 28.1913 53.9076C33.4601 53.2187 30.5583 50.6248 30.1772 49.0969C26.2824 36.1924 35.75 33.1405 33.0791 45.737C31.3241 52.9917 36.8969 52.2258 40.8687 49.6318C44.9175 47.034 49.9591 29.3958 47.0573 19.7011ZM31.632 35.0455C30.716 37.3355 26.2093 36.5734 26.0592 34.2835C26.0592 34.2065 26.2132 34.2065 26.2132 34.2835C28.276 34.7415 30.1849 34.9724 31.4819 34.9724C31.555 34.9686 31.632 34.8954 31.632 35.0455Z" fill="#222223"/>
<path fill-rule="evenodd" clip-rule="evenodd" d="M11.8578 51.3868C11.8578 52.6068 10.8648 53.5998 9.64483 53.5998C8.34784 53.5998 7.3549 52.6068 7.3549 51.3868C7.3549 50.1668 8.34784 49.0969 9.64483 49.0969C10.8648 49.0969 11.8578 50.1668 11.8578 51.3868ZM9.64098 48.7159C8.11308 48.7159 6.89307 49.8627 6.89307 51.3868C6.89307 52.8377 8.11308 54.0577 9.64098 54.0577C11.0919 54.0577 12.3119 52.8377 12.3119 51.3868C12.3158 49.8589 11.0919 48.7159 9.64098 48.7159Z" fill="#222223"/>
<path fill-rule="evenodd" clip-rule="evenodd" d="M10.4069 51.7678C10.3299 52.1488 10.0258 52.3797 9.71795 52.3797C9.183 52.3797 8.80198 51.9217 8.80198 51.3868C8.80198 50.8518 9.10602 50.3938 9.64098 50.3938C10.022 50.3938 10.3299 50.6247 10.403 50.9288H10.784C10.7071 50.3169 10.2491 50.0128 9.63713 50.0128C8.87511 50.0128 8.34015 50.6248 8.34015 51.3868C8.34015 52.1488 8.87511 52.7607 9.71411 52.7607C10.2491 52.7607 10.6301 52.3797 10.784 51.7678H10.4069V51.7678Z" fill="#222223"/>
<path fill-rule="evenodd" clip-rule="evenodd" d="M47.2112 54.9006C47.2112 56.1206 46.2183 57.1135 44.9983 57.1135C43.7013 57.1135 42.7084 56.1206 42.7084 54.9006C42.7084 53.6805 43.7013 52.6106 44.9983 52.6106C46.2183 52.6068 47.2112 53.6767 47.2112 54.9006ZM44.9944 52.2258C43.4665 52.2258 42.2465 53.3727 42.2465 54.8967C42.2465 56.3476 43.4665 57.5677 44.9944 57.5677C46.4454 57.5677 47.6654 56.3476 47.6654 54.8967C47.6692 53.3727 46.4454 52.2258 44.9944 52.2258Z" fill="#222223"/>
<path fill-rule="evenodd" clip-rule="evenodd" d="M44.5365 55.0507H44.9175L45.6064 56.1976H46.0644L45.3023 55.0507C45.6834 54.9737 45.9912 54.8198 45.9912 54.3618C45.9912 53.8268 45.6872 53.5998 45.0753 53.5998H44.1593V56.1976H44.5403V55.0507H44.5365ZM44.5365 54.7466V53.9846H44.9945C45.2985 53.9846 45.6064 53.9846 45.6064 54.2887C45.6064 54.7466 45.3023 54.7466 44.9945 54.7466H44.5365Z" fill="#222223"/>
</svg>
